<?xml version="1.0" encoding="utf-8"?>
<!-- Generator: Adobe Illustrator 25.0.1, SVG Export Plug-In . SVG Version: 6.00 Build 0)  -->
<svg version="1.1" id="Layer_1" xmlns="http://www.w3.org/2000/svg" xmlns:xlink="http://www.w3.org/1999/xlink" x="0px" y="0px"
	 viewBox="0 0 1908.8 1008" style="enable-background:new 0 0 1908.8 1008;" xml:space="preserve">
<style type="text/css">
	.st0{fill:#05152E;}
	.st1{fill:url(#SVGID_1_);}
	.st2{fill:url(#SVGID_2_);}
	.st3{fill:url(#SVGID_3_);}
	.st4{fill:url(#SVGID_4_);}
	.st5{fill:url(#SVGID_5_);}
	.st6{fill:url(#SVGID_6_);}
	.st7{fill:url(#SVGID_7_);}
	.st8{fill:url(#SVGID_8_);}
	.st9{fill:url(#SVGID_9_);}
	.st10{fill:#03264B;}
</style>
<g>
	<path class="st0" d="M184.1,419c-10.8-4.8-23.2-7.3-37.1-7.3H74.1v193.9h36.2v-71.8h35.9c15.4,0,28.5-2.4,39.3-7.1
		c10.8-4.7,19-11.6,24.7-20.6c5.7-9.1,8.5-20.1,8.5-33.2c0-12.8-3.1-23.8-9.2-33C203.4,430.8,194.9,423.8,184.1,419z M173,496.1
		c-6.4,4.8-15.4,7.2-26.9,7.2h-35.7V443h36c11,0,19.8,2.6,26.4,7.8c6.6,5.2,9.9,12.8,9.9,22.9C182.6,483.8,179.4,491.3,173,496.1z
		 M309.6,411.7l-74.4,193.9h39.6l15.9-43.9h77.9l16.5,43.9h40.7l-75.9-193.9H309.6z M299.6,531.1l29.5-78.7l30.3,78.7H299.6z
		 M436.1,411.7h143.5v33H526v161h-36.3v-161h-53.6V411.7z M784.8,411.7v193.9h-36.2V520h-88v85.6h-36.2V411.7h36.2v75.4h88v-75.4
		H784.8z"/>
	<linearGradient id="SVGID_1_" gradientUnits="userSpaceOnUse" x1="983.4165" y1="215.3334" x2="983.4165" y2="761.8997">
		<stop  offset="0" style="stop-color:#013D71"/>
		<stop  offset="1" style="stop-color:#05152E"/>
	</linearGradient>
	<path class="st1" d="M847.2,549.3c-3.7-15.1-5.4-30.6-5.4-45.3c0-14.7,1.7-30.2,5.4-45.3c1.9-7.6,4.2-15.1,7.2-22.3
		c2.9-7.3,6.4-14.3,10.3-21c7.8-13.4,17.4-25.4,27.4-35.9c10.1-10.6,20.7-19.8,31.4-28.2c10.6-8.4,21.2-16,31.4-23.5l15-11l7.3-5.5
		l7.3-5.7c19.3-15.4,37.9-31,54.1-48.2c8.1-8.6,15.8-17.4,22.6-26.8c6.7-9.4,12.7-19.1,17.6-29.3c4.8-10.2,8.6-21,10.9-31.8
		c2.3-10.5,2.4-21.6,1.2-32.9c-2.6-22.6-12.1-45.3-25.3-65.9c-11.2-17.3-25.1-33.3-41.5-47.1c-1.4-1.2,0-3.5,1.7-2.6
		c19.5,9.6,37.5,23.1,53,39.2c9.3,9.6,17.5,20.4,24.6,32.1c7.1,11.7,12.8,24.6,16.7,38.3c2,6.8,3.3,14,4.1,21.2
		c0.8,7.2,1,14.6,0.5,22c-0.9,14.5-3.9,28.5-8.4,42.1c-2.3,6.8-4.8,13.4-7.7,19.9c-3,6.4-6.2,12.7-9.7,18.8
		c-7,12.1-14.8,23.6-23.3,34.4c-17,21.5-36,40.7-55.6,58.3l-7.3,6.6l-7.6,6.6c-5.1,4.4-10.1,8.5-15.1,12.6
		c-10,8.1-19.7,15.9-28.8,23.8c-9,7.9-17.4,15.7-24.7,23.8c-7.3,8.1-13.5,16.5-18.2,25.3c-4.8,8.8-8.4,17.8-10.7,27.5
		c-2.2,9.7-3.3,19.7-3.2,30.6c-0.1,10.8,1,20.8,3.2,30.6c2.3,9.7,5.9,18.8,10.7,27.5c4.8,8.8,10.9,17.1,18.2,25.3
		c7.3,8.1,15.7,15.9,24.7,23.8c3.7,3.2,7.6,6.5,11.5,9.7c-4.2,3.5-7.9,6.5-11.3,9.5l-7.6,6.7l-0.1,0.1l-0.1,0.1l-7.3,6.6
		c-6.2,5.6-12.1,11.2-17.8,16.7c-1.6-1.2-3.2-2.5-4.8-3.7c-10.7-8.4-21.3-17.6-31.4-28.2c-10.1-10.6-19.6-22.5-27.5-35.9
		c-3.9-6.7-7.4-13.8-10.3-21C851.4,564.4,849.1,556.9,847.2,549.3z"/>
	<linearGradient id="SVGID_2_" gradientUnits="userSpaceOnUse" x1="997.9953" y1="216.8006" x2="997.9953" y2="763.3668">
		<stop  offset="0" style="stop-color:#013D71"/>
		<stop  offset="1" style="stop-color:#05152E"/>
	</linearGradient>
	<path class="st2" d="M1139.6,504c0,14.7-1.7,30.2-5.4,45.3c-1.9,7.6-4.2,15.1-7.2,22.3c-2.9,7.3-6.4,14.3-10.3,21
		c-7.8,13.4-17.4,25.4-27.4,35.9c-10.1,10.6-20.7,19.8-31.4,28.2c-10.6,8.4-21.2,16-31.4,23.5l-15,11l-7.3,5.5l-7.3,5.7
		c-19.3,15.4-37.9,31-54.1,48.2c-8.1,8.6-15.8,17.4-22.6,26.8c-6.7,9.4-12.7,19.1-17.6,29.3c-4.9,10.2-8.6,21-10.9,31.8
		c-2.3,10.5-2.4,21.6-1.2,32.9c2.6,22.6,12.1,45.3,25.3,65.9c11.2,17.3,25.1,33.3,41.5,47.1c1.4,1.2,0,3.5-1.7,2.6
		c-19.5-9.6-37.5-23.1-53-39.2c-9.3-9.6-17.5-20.4-24.6-32.1c-7.1-11.7-12.8-24.6-16.7-38.3c-2-6.8-3.3-14-4.1-21.2
		c-0.8-7.2-1-14.6-0.5-22c0.9-14.5,3.9-28.5,8.4-42.1c2.3-6.8,4.8-13.4,7.7-19.9c3-6.4,6.2-12.7,9.7-18.8
		c7-12.1,14.8-23.6,23.3-34.4c17-21.5,36-40.7,55.6-58.3l7.3-6.6l7.6-6.6c5.1-4.4,10.1-8.5,15.1-12.6c10-8.1,19.7-15.9,28.8-23.8
		c9-7.9,17.4-15.7,24.7-23.8c7.3-8.1,13.5-16.5,18.2-25.3c4.8-8.8,8.4-17.8,10.7-27.5c2.2-9.7,3.3-19.7,3.2-30.6
		c0.1-10.8-1-20.8-3.2-30.6c-2.3-9.7-5.9-18.8-10.7-27.5c-4.8-8.8-10.9-17.1-18.2-25.3c-7.3-8.1-15.7-15.9-24.7-23.8
		c-3.7-3.2-7.6-6.5-11.5-9.7c4.2-3.5,7.9-6.5,11.3-9.5l7.6-6.7l0.1-0.1l0.1-0.1l7.3-6.6c6.2-5.6,12.1-11.2,17.8-16.7
		c1.6,1.2,3.2,2.5,4.8,3.7c10.7,8.4,21.3,17.6,31.4,28.2c10.1,10.6,19.6,22.5,27.5,35.9c3.9,6.7,7.4,13.8,10.3,21
		c3,7.3,5.3,14.8,7.2,22.3C1137.9,473.8,1139.6,489.3,1139.6,504z"/>
	<linearGradient id="SVGID_3_" gradientUnits="userSpaceOnUse" x1="1074.1052" y1="467.9646" x2="1074.1052" y2="283.0605">
		<stop  offset="0" style="stop-color:#249BC6"/>
		<stop  offset="1" style="stop-color:#023F73"/>
	</linearGradient>
	<path class="st3" d="M1139.6,504c0,14.7-1.7,30.2-5.4,45.3c-1.9,7.6-4.2,15.1-7.2,22.3c-2.9,7.3-6.4,14.3-10.3,21
		c-1.4,2.3-2.8,4.6-4.3,6.8c9.8-19.6,18.3-39.2,7.5-83.1c-10.9-44.3-53-77.6-78.1-99c-0.1-0.1-0.2-0.2-0.3-0.2
		c-6.5-6.9-13.7-13.5-21.4-20.2c-3.7-3.2-7.6-6.5-11.5-9.7c4.2-3.5,7.9-6.5,11.3-9.5l7.6-6.7l0.1-0.1l0.1-0.1l7.3-6.6
		c6.2-5.6,12.1-11.2,17.8-16.7c1.6,1.2,3.2,2.5,4.8,3.7c10.7,8.4,21.5,17.5,31.4,28.2c10.4,11.2,20.2,23.7,27.5,35.9
		c4,6.7,7.4,13.8,10.3,21c3,7.3,5.3,14.8,7.2,22.3C1137.9,473.8,1139.6,489.3,1139.6,504z"/>
	<linearGradient id="SVGID_4_" gradientUnits="userSpaceOnUse" x1="964.8806" y1="165.5957" x2="964.8806" y2="466.5732">
		<stop  offset="0" style="stop-color:#249BC6"/>
		<stop  offset="1" style="stop-color:#023F73"/>
	</linearGradient>
	<path class="st4" d="M1073.4,161.3v8.2c-0.4,1.6-0.9,3.3-1.4,4.9H892.9c2.3,9.1,5.6,18.2,9.7,26.8c4.5,9.3,9.9,18.3,15.9,26.9
		h123.8c-3.3,4.1-7.1,8.4-11.3,13.1H928.5c0.8,1,1.6,2,2.5,3c3.8,4.4,7.7,8.8,11.8,13.1c8.7,9.2,18.1,18,27.8,26.5
		c0,1.6-0.1,2.4-0.1,4l-7.1,5.6l-7,5.3l-14.8,10.9l-3.4,2.5c-2.5,1.8-5,3.7-7.6,5.5c-8.6-9.1-17-18.5-24.8-28.5
		c-8.5-10.8-16.3-22.3-23.3-34.4c-3.5-6.1-6.7-12.4-9.7-18.8c-2.9-6.4-5.5-13.1-7.7-19.9c-4.4-13.6-7.5-27.6-8.4-42.1
		c-0.5-7.4-0.3-14.8,0.5-22.1c0.8-7.2,2.1-14.4,4.1-21.2c3.9-13.7,9.5-26.6,16.7-38.3c7.1-11.7,15.4-22.5,24.7-32.1
		C918,43.9,936,30.4,955.6,20.8c1.7-0.8,3.1,1.4,1.7,2.6c-16.4,13.8-30.3,29.8-41.5,47.2c-4.9,7.7-9.4,15.7-13.1,23.9h159.1
		c2.2,4.4,4.2,8.7,5.9,13.1H897.4c-3.4,9.5-5.8,19.3-6.9,28.9c-0.9,8.4-1.1,16.7-0.1,24.8H1073.4z"/>
	<linearGradient id="SVGID_5_" gradientUnits="userSpaceOnUse" x1="983.4569" y1="1012.9846" x2="983.4569" y2="298.801">
		<stop  offset="0" style="stop-color:#249BC6"/>
		<stop  offset="1" style="stop-color:#023F73"/>
	</linearGradient>
	<path class="st5" d="M923.6,656.8c-10.7-8.4-21.3-17.6-31.4-28.2c-10.1-10.6-19.6-22.5-27.5-35.9c-3.9-6.7-7.4-13.8-10.3-21
		c-3-7.3-5.3-14.8-7.2-22.3c-3.7-15.1-5.4-30.6-5.4-45.3c0-14.7,1.7-30.2,5.4-45.3c1.9-7.6,4.2-15.1,7.2-22.3
		c2.9-7.3,6.4-14.3,10.3-21c1.4-2.3,2.8-4.6,4.3-6.8c-9.8,19.6-18.3,39.2-7.5,83.1c10.9,44.3,53,77.6,78.1,99
		c0.1,0.1,0.2,0.2,0.3,0.2c6.5,6.9,13.7,13.5,21.4,20.2c3.7,3.2,7.6,6.5,11.5,9.7c-4.2,3.5-7.9,6.5-11.3,9.5l-7.6,6.7l-0.1,0.1
		l-0.1,0.1l-7.3,6.6c-6.2,5.6-12.1,11.2-17.8,16.7C926.8,659.3,925.2,658.1,923.6,656.8z M1124.8,834.2c-0.9-14.5-3.9-28.5-8.4-42.1
		c-2.3-6.8-4.8-13.4-7.7-19.9c-3-6.4-6.2-12.7-9.7-18.8c-7-12.1-14.8-23.7-23.3-34.4c-7.9-10-16.2-19.5-24.8-28.5
		c-2.5,1.9-5.1,3.7-7.6,5.5l-3.4,2.5l-14.8,10.9l-7,5.3l-9.6,7.5c10.6,9.2,20.8,18.6,30.2,28.5c4,4.3,8,8.7,11.8,13.1
		c0.8,1,1.7,2,2.5,3H950.4c-4.3,4.6-8,8.9-11.3,13.1h123.8c6.1,8.6,11.5,17.6,15.9,26.9c4.1,8.6,7.4,17.6,9.7,26.8H909.4
		c-0.5,1.6-0.9,3.3-1.4,4.9v8.2h183c0.9,8,0.8,16.4-0.1,24.8c-1.1,9.7-3.5,19.4-6.9,28.9H913.8c1.7,4.3,3.7,8.7,5.9,13.1h159.1
		c-3.7,8.2-8.1,16.2-13.1,23.9c-11.2,17.3-25.2,33.3-41.5,47.2c-1.4,1.2,0,3.5,1.7,2.6c19.6-9.6,37.6-23.1,53.1-39.3
		c9.3-9.6,17.5-20.4,24.7-32.1c7.1-11.7,12.8-24.6,16.7-38.3c2-6.9,3.3-14,4.1-21.2C1125.1,849,1125.3,841.6,1124.8,834.2z"/>
	<linearGradient id="SVGID_6_" gradientUnits="userSpaceOnUse" x1="1979.7318" y1="422.2054" x2="1301.0935" y2="584.5883">
		<stop  offset="0" style="stop-color:#249BC6"/>
		<stop  offset="1" style="stop-color:#03274C"/>
	</linearGradient>
	<path class="st6" d="M1312.2,516.9c8.5,8.5,12.7,19.6,12.7,33.3c0,11.7-3,22.1-8.9,31c-5.9,9-14.4,16-25.4,21
		c-11,5-24.2,7.6-39.6,7.6c-13.9,0-27.4-2-40.5-6c-13.2-4-24.3-9.8-33.3-17.2l17.5-27.3c4.4,4.1,9.7,7.6,15.9,10.5
		c6.2,3,12.8,5.2,19.7,6.9c7,1.6,13.9,2.4,20.8,2.4c11.5,0,20.9-2.1,28.1-6.4c7.2-4.3,10.7-10.5,10.7-18.6c0-6.3-2.5-11.6-7.4-15.9
		c-4.9-4.3-14.2-8.4-27.6-12.2l-18.7-5.4c-18.9-5.4-32.6-12.5-41.1-21.5c-8.5-9-12.7-20.1-12.7-33.2c0-8.6,1.8-16.4,5.3-23.5
		c3.6-7.1,8.5-13.2,15-18.4c6.4-5.2,14-9.2,22.8-12c8.8-2.8,18.3-4.2,28.7-4.2c13.6,0,26.2,2,37.8,6c11.6,4,21.1,9.3,28.5,16.1
		l-17.9,26.3c-3.9-3.6-8.5-6.7-13.7-9.4c-5.3-2.6-10.9-4.7-17-6.2c-6.1-1.5-12.2-2.2-18.4-2.2c-7.3,0-13.7,1-19.1,3s-9.7,5-12.7,8.8
		c-3,3.8-4.6,8.4-4.6,13.8c0,4.1,1,7.5,3.1,10.5c2.1,2.9,5.7,5.6,10.7,8c5.1,2.4,12.1,5,21.1,7.7l19.7,5.8
		C1290.2,501.4,1303.7,508.4,1312.2,516.9z M1411.3,519.8h79.5v-29.5h-79.5v-47h93v-31.6h-129.1v193.9h130.1v-31.9h-93.9V519.8z
		 M1852.1,635.2c-8.1,7.1-17.8,12.6-28.9,15.5c-11.1,2.9-23.8,2.4-35.2-1.4c-11.5-3.7-21.6-10.2-30.3-17.3
		c-4.3-3.6-8.3-7.4-12.2-11.2c-3.8-3.9-7.4-7.9-10.9-11.8c-6.2-7.2-12-14.4-17.7-21.5c-7.4,6-15.7,10.8-24.9,14.6
		c-12.5,5.1-26,7.7-40.7,7.7c-14.7,0-28.3-2.6-40.7-7.7c-12.5-5.1-23.3-12.3-32.6-21.4c-9.2-9.1-16.4-19.9-21.5-32.1
		c-5.1-12.3-7.7-25.6-7.7-39.9c0-14.4,2.6-27.8,7.7-40c5.1-12.3,12.3-23,21.5-32.1c9.2-9.1,20.1-16.3,32.6-21.3
		c12.5-5.1,26-7.6,40.7-7.6c14.7,0,28.3,2.6,40.7,7.8c12.5,5.2,23.3,12.4,32.6,21.6c9.2,9.2,16.4,20,21.6,32.2
		c5.2,12.2,7.8,25.4,7.8,39.6c0,14.3-2.6,27.6-7.8,39.9c-2.9,6.9-6.5,13.3-10.6,19.2c3.6,3.6,7,7.4,10.4,11l10.2,11.5
		c13.3,15.2,25.6,29.8,40.7,38.4c7.5,4.4,15.8,7.1,25.2,8C1831.3,637.7,1841.4,636.7,1852.1,635.2z M1716,508.7
		c0-13.6-2.8-25.4-8.5-35.5c-5.7-10.1-13.4-17.9-23.2-23.4c-9.8-5.5-20.8-8.3-33.1-8.3c-9.1,0-17.6,1.6-25.5,4.8
		c-7.9,3.2-14.7,7.7-20.6,13.6c-5.9,5.9-10.4,12.9-13.7,21.2c-3.3,8.3-4.9,17.5-4.9,27.6c0,13.6,2.8,25.4,8.5,35.5
		c5.7,10.1,13.4,17.9,23.2,23.4c9.8,5.5,20.8,8.3,33,8.3c9.2,0,17.8-1.6,25.6-4.8c6.1-2.5,11.6-5.8,16.6-9.9
		c-5.9-5.6-12.3-10.6-19.6-14.5c-8.3-4.4-17.9-6.9-28.6-8.1c9.6-4.9,21.1-6.8,32.6-5.2c10.5,1.5,20.5,5.7,29.4,11.1
		c1.5-2.6,2.8-5.3,4-8.2C1714.4,528,1716,518.8,1716,508.7z"/>
	<linearGradient id="SVGID_7_" gradientUnits="userSpaceOnUse" x1="1679.8232" y1="345.9803" x2="315.4481" y2="657.1536">
		<stop  offset="0" style="stop-color:#249BC6"/>
		<stop  offset="1" style="stop-color:#03274C"/>
	</linearGradient>
	<path class="st7" d="M1662.1,337.6c2-0.9,3.9-2.1,5.7-3.7c1.8-1.6,3.2-3.5,4.3-5.7c1.1-2.2,1.7-4.4,1.7-6.8c0-6.5-2.3-11.4-7-14.7
		c-4.7-3.3-10.8-5-18.4-5h-28v78h29c5.6,0,10.4-0.9,14.5-2.8c4.1-1.9,7.2-4.5,9.4-7.8s3.3-7.2,3.3-11.6c0-5-1.4-9.2-4.1-12.6
		C1669.8,341.3,1666.4,338.9,1662.1,337.6z M1635,312.7h11.1c4.3,0,7.7,0.9,10.1,2.7c2.4,1.8,3.5,4.4,3.5,7.8c0,2.4-0.5,4.4-1.6,6.1
		c-1.1,1.7-2.6,3-4.6,3.8c-2,0.9-4.4,1.3-7.1,1.3H1635V312.7z M1658.1,365.6c-2.4,1.9-6,2.9-10.9,2.9H1635V345h12.3
		c4.9,0,8.5,1,10.9,3.1c2.4,2,3.6,5,3.6,8.8C1661.7,360.7,1660.5,363.6,1658.1,365.6z M1697.5,301.6h14.5v78h-14.5V301.6z
		 M1811.7,324.7c-2.1-4.9-5-9.2-8.7-12.9c-3.7-3.7-8.1-6.6-13.1-8.7c-5-2.1-10.5-3.1-16.4-3.1c-5.9,0-11.4,1-16.4,3.1
		c-5,2-9.4,4.9-13.1,8.6c-3.7,3.7-6.6,8-8.7,12.9c-2.1,4.9-3.1,10.3-3.1,16.1c0,5.8,1,11.1,3.1,16c2.1,4.9,4.9,9.2,8.7,12.9
		c3.7,3.7,8.1,6.5,13.1,8.6c5,2.1,10.5,3.1,16.4,3.1c5.9,0,11.4-1,16.4-3.1c5-2.1,9.4-4.9,13.1-8.6c3.7-3.7,6.6-8,8.7-12.9
		c2.1-4.9,3.1-10.3,3.1-16C1814.9,334.9,1813.8,329.6,1811.7,324.7z M1797.7,351.7c-1.3,3.3-3.2,6.2-5.5,8.5
		c-2.4,2.4-5.1,4.2-8.3,5.5c-3.2,1.3-6.6,1.9-10.3,1.9c-4.9,0-9.3-1.1-13.3-3.3c-3.9-2.2-7-5.4-9.3-9.4c-2.3-4-3.4-8.8-3.4-14.3
		c0-4.1,0.7-7.8,2-11.1c1.3-3.3,3.2-6.2,5.5-8.5c2.4-2.4,5.1-4.2,8.3-5.5c3.2-1.3,6.6-1.9,10.2-1.9c4.9,0,9.4,1.1,13.3,3.3
		c3.9,2.2,7,5.4,9.3,9.4c2.3,4,3.4,8.8,3.4,14.3C1799.7,344.7,1799,348.4,1797.7,351.7z"/>
	<linearGradient id="SVGID_8_" gradientUnits="userSpaceOnUse" x1="1070.9353" y1="108.7634" x2="1070.9353" y2="529.8481">
		<stop  offset="0" style="stop-color:#249BC6"/>
		<stop  offset="1" style="stop-color:#023F73"/>
	</linearGradient>
	<path class="st8" d="M1116.2,593.4c-1.2,2.1-2.6,4.1-3.9,6.1c9.8-19.6,18.3-39.2,7.5-83.1c-10.9-44.3-53-77.6-78.1-99
		c-0.1-0.1-0.2-0.2-0.3-0.2c-6.5-6.9-13.7-13.5-21.4-20.2c-3.7-3.2-7.6-6.5-11.5-9.7c4.2-3.5,7.9-6.5,11.3-9.5l5.2-4.6
		c0,0,29.4,26.4,38.8,34.7c15.6,13.8,35.3,32.9,48.4,53.7C1150.9,522.7,1126.2,576,1116.2,593.4z"/>
	<linearGradient id="SVGID_9_" gradientUnits="userSpaceOnUse" x1="910.4763" y1="675.4702" x2="910.4763" y2="434.3952">
		<stop  offset="0" style="stop-color:#249BC6"/>
		<stop  offset="1" style="stop-color:#023F73"/>
	</linearGradient>
	<path class="st9" d="M972.8,620.9c-4.2,3.5-7.9,6.5-11.3,9.5l-5.2,4.6c0,0-29.4-26.4-38.8-34.7c-15.6-13.8-35.3-32.9-48.4-53.7
		c-38.5-61.3-13.9-114.5-3.9-131.9c1.2-2.1,2.6-4.1,3.9-6.1c-9.8,19.6-18.3,39.2-7.5,83.1c10.9,44.3,53,77.6,78.1,99
		c0.1,0.1,0.2,0.2,0.3,0.2c6.5,6.9,13.7,13.5,21.4,20.2C965,614.4,968.8,617.6,972.8,620.9z"/>
	<g>
		
			<image style="overflow:visible;" width="328" height="127" xlink:href="634EE4C6.png"  transform="matrix(1 0 0 1 834.1489 635.0032)">
		</image>
	</g>
	<path class="st10" d="M276.1,701c2,2,2.9,4.6,2.9,7.8c0,2.7-0.7,5.1-2,7.2c-1.3,2.1-3.3,3.7-5.8,4.8c-2.5,1.2-5.6,1.7-9.2,1.7
		c-3.2,0-6.2-0.5-9.3-1.4c-3-0.9-5.6-2.2-7.6-3.9l3.6-5.6c1.1,0.9,2.4,1.7,3.8,2.4c1.4,0.7,3,1.2,4.6,1.6c1.6,0.4,3.3,0.5,4.9,0.5
		c3,0,5.4-0.6,7.2-1.7c1.8-1.1,2.8-2.8,2.8-5c0-1.6-0.6-3-1.9-4.1c-1.3-1.1-3.6-2.2-6.9-3.1l-4.7-1.4c-4.3-1.2-7.5-2.9-9.4-4.9
		c-2-2-3-4.6-3-7.6c0-2,0.4-3.8,1.2-5.5c0.8-1.6,2-3.1,3.5-4.3c1.5-1.2,3.3-2.1,5.3-2.7c2-0.6,4.2-0.9,6.7-0.9
		c3.1,0,5.9,0.4,8.6,1.3c2.6,0.9,4.8,2.1,6.5,3.6l-3.7,5.4c-0.9-0.8-2-1.6-3.3-2.2c-1.3-0.6-2.6-1.1-4-1.4c-1.4-0.3-2.9-0.5-4.4-0.5
		c-1.8,0-3.4,0.3-4.9,0.8c-1.4,0.5-2.5,1.3-3.3,2.3c-0.8,1-1.2,2.2-1.2,3.7c0,1,0.3,2,0.8,2.7c0.5,0.8,1.4,1.5,2.7,2.1
		c1.3,0.6,3,1.3,5.3,1.9l5,1.5C271.1,697.4,274.2,699,276.1,701z M309.9,700.7h19.2v-6.1h-19.2v-12.4h22.3v-6.5h-29.6v45.8h29.8
		v-6.5h-22.5V700.7z M400.6,707.5c-1.1,2.8-2.7,5.2-4.6,7.3l4.7,5.4l-4.3,3.8l-4.8-5.5c-1.9,1.2-4.1,2.2-6.3,2.9
		c-2.3,0.7-4.7,1.1-7.2,1.1c-3.4,0-6.5-0.6-9.4-1.8c-2.9-1.2-5.4-2.9-7.6-5c-2.2-2.1-3.8-4.7-5.1-7.6c-1.2-2.9-1.8-6.1-1.8-9.5
		c0-3.4,0.6-6.5,1.8-9.4c1.2-2.9,2.9-5.4,5.1-7.6c2.2-2.2,4.7-3.8,7.7-5c2.9-1.2,6.1-1.8,9.5-1.8c3.4,0,6.5,0.6,9.4,1.8
		c2.9,1.2,5.5,2.9,7.7,5s3.9,4.7,5.1,7.6c1.2,2.9,1.8,6,1.8,9.3C402.2,701.7,401.7,704.7,400.6,707.5z M395.1,698.6
		c0-3.5-0.8-6.5-2.3-9.1c-1.5-2.6-3.5-4.6-6.1-6c-2.5-1.4-5.4-2.1-8.5-2.1c-2.4,0-4.5,0.4-6.6,1.2c-2,0.8-3.8,2-5.3,3.5
		c-1.5,1.5-2.7,3.3-3.5,5.4c-0.8,2.1-1.3,4.5-1.3,7.1c0,3.5,0.7,6.5,2.2,9.1c1.5,2.6,3.5,4.7,6,6.1c2.5,1.5,5.4,2.2,8.5,2.2
		c1.7,0,3.3-0.2,4.8-0.7s2.9-1.1,4.2-2l-6.9-8l4.1-3.6l7,7.9c1.2-1.4,2.1-3.1,2.7-5C394.8,702.9,395.1,700.8,395.1,698.6z
		 M455,703.6c0,4-1,7-3,9c-2,2-4.7,3-8.1,3c-3.4,0-6.1-1-8.1-3c-2-2-3-5-3-9v-27.8h-7.4v27.9c0,3.6,0.7,6.7,2.1,9.6
		c1.4,2.8,3.4,5.1,6.2,6.7c2.7,1.7,6.2,2.5,10.2,2.5c4.1,0,7.5-0.8,10.2-2.5c2.7-1.7,4.8-3.9,6.2-6.8c1.4-2.8,2.1-6,2.1-9.6v-27.9
		H455V703.6z M495.7,700.7h19.2v-6.1h-19.2v-12.4H518v-6.5h-29.6v45.8h29.8v-6.5h-22.5V700.7z M572.9,709l-23.1-33.2h-7v45.8h7.2
		v-33.6l23.1,33.6h7v-45.8h-7.1V709z M634.7,714.3c-2.1,0.7-4.4,1-6.7,1c-3.5,0-6.5-0.7-9-2c-2.5-1.3-4.5-3.2-5.9-5.7
		c-1.4-2.5-2.1-5.5-2.1-9.1c0-2.6,0.4-4.9,1.2-6.9c0.8-2.1,1.9-3.8,3.3-5.3s3.2-2.6,5.2-3.3s4.3-1.2,6.9-1.2c2.3,0,4.4,0.3,6.3,1
		c1.9,0.6,3.6,1.6,5,3l3.8-6c-1.9-1.6-4.1-2.9-6.7-3.7s-5.6-1.3-9-1.3c-3.5,0-6.6,0.6-9.5,1.8c-2.9,1.2-5.4,2.8-7.5,5
		c-2.1,2.1-3.8,4.7-4.9,7.6s-1.7,6.1-1.7,9.6c0,4.8,1,9,3,12.6c2,3.6,4.7,6.3,8.3,8.3c3.6,2,7.7,2.9,12.5,2.9c3.5,0,6.7-0.5,9.5-1.4
		c2.8-0.9,5.3-2.2,7.5-4l-3.4-6.2C638.9,712.5,636.9,713.6,634.7,714.3z M666.3,721.5h7.3v-45.8h-7.3V721.5z M730,709l-23.1-33.2h-7
		v45.8h7.2v-33.6l23.1,33.6h7v-45.8H730V709z M784.3,703.3h10.4v11c-0.9,0.4-2,0.8-3.4,1.2c-1.4,0.3-3,0.5-4.8,0.5
		c-3.6,0-6.8-0.7-9.5-2c-2.8-1.3-4.9-3.3-6.5-5.9c-1.6-2.6-2.4-5.7-2.4-9.4c0-2.7,0.4-5,1.2-7.2c0.8-2.1,2-3.9,3.5-5.4
		c1.5-1.5,3.4-2.6,5.5-3.4c2.2-0.8,4.6-1.2,7.2-1.2c2,0,4,0.3,6,0.8c1.9,0.5,3.7,1.3,5.4,2.4l3.2-5.8c-1.5-1-3-1.8-4.7-2.5
		c-1.6-0.6-3.3-1-5-1.3c-1.7-0.3-3.4-0.4-5-0.4c-3.6,0-6.9,0.6-9.9,1.7c-3,1.1-5.6,2.8-7.9,4.9c-2.2,2.1-4,4.6-5.2,7.6
		c-1.2,2.9-1.9,6.2-1.9,9.8c0,3.6,0.6,6.9,1.9,9.8c1.3,2.9,3.1,5.4,5.4,7.5c2.3,2.1,5,3.7,8.1,4.8c3.1,1.1,6.5,1.7,10.1,1.7
		c1.5,0,3.2-0.2,5.1-0.5c1.9-0.3,3.8-0.7,5.6-1.3c1.8-0.6,3.3-1.3,4.5-2.1v-21.4h-17V703.3z M885.7,682.2c1.4,2.1,2.1,4.6,2.1,7.6
		c0,3-0.7,5.6-2,7.6c-1.3,2.1-3.2,3.7-5.7,4.8c-2.5,1.1-5.5,1.6-9.1,1.6H862v17.6h-7.3v-45.8h16.6c3.2,0,6.1,0.6,8.6,1.7
		C882.4,678.5,884.3,680.1,885.7,682.2z M880.5,690c0-2.5-0.8-4.5-2.5-5.8c-1.7-1.3-3.9-2-6.8-2H862v15.4h9.2c3,0,5.3-0.6,6.9-1.9
		C879.7,694.4,880.5,692.5,880.5,690z M954,689.3c1.2,2.9,1.8,6,1.8,9.3c0,3.4-0.6,6.5-1.8,9.4s-2.9,5.4-5.1,7.6
		c-2.2,2.2-4.7,3.8-7.6,5.1c-2.9,1.2-6.1,1.8-9.5,1.8c-3.4,0-6.6-0.6-9.6-1.8c-2.9-1.2-5.5-2.9-7.7-5.1c-2.2-2.2-3.9-4.7-5.1-7.6
		c-1.2-2.9-1.8-6-1.8-9.4c0-3.4,0.6-6.5,1.8-9.4c1.2-2.9,2.9-5.4,5.1-7.6c2.2-2.2,4.7-3.8,7.7-5c2.9-1.2,6.1-1.8,9.6-1.8
		c3.4,0,6.6,0.6,9.5,1.8c2.9,1.2,5.5,2.9,7.6,5.1C951.1,683.8,952.7,686.4,954,689.3z M948.1,698.6c0-3.4-0.7-6.4-2.2-8.9
		c-1.4-2.5-3.4-4.5-5.9-5.9c-2.5-1.4-5.3-2.1-8.3-2.1c-2.3,0-4.5,0.4-6.5,1.2c-2,0.8-3.7,1.9-5.2,3.4c-1.5,1.5-2.7,3.3-3.5,5.3
		c-0.8,2.1-1.3,4.4-1.3,7c0,3.4,0.7,6.4,2.2,8.9c1.5,2.5,3.4,4.5,5.9,5.9c2.5,1.4,5.3,2.1,8.3,2.1c2.3,0,4.5-0.4,6.5-1.2
		c2-0.8,3.7-1.9,5.2-3.4c1.5-1.5,2.6-3.3,3.5-5.4C947.7,703.5,948.1,701.1,948.1,698.6z M1019.9,711.3l-10.4-35.6h-7.6l-10.5,35.6
		l-10-35.6h-7.7l13.8,45.8h7.7l10.3-34.7l10.2,34.7h7.7l13.7-45.8h-7.5L1019.9,711.3z M1066.5,700.7h19.2v-6.1h-19.2v-12.4h22.3
		v-6.5h-29.6v45.8h29.8v-6.5h-22.5V700.7z M1134.8,701.9l13.8,19.6h-8.9l-12.6-18.4h-6.2v18.4h-7.3v-45.8h17.3
		c3.2,0,5.9,0.5,8.3,1.6c2.3,1.1,4.1,2.7,5.4,4.7c1.3,2,1.9,4.4,1.9,7.2c0,2.3-0.5,4.3-1.5,6c-1,1.7-2.3,3.2-4.1,4.3
		S1137.1,701.5,1134.8,701.9z M1129.6,696.9c3,0,5.3-0.6,6.9-1.9c1.6-1.3,2.5-3.1,2.5-5.4c0-2.4-0.7-4.3-2.2-5.6s-3.7-2-6.6-2h-9.3
		v15H1129.6z M1220.4,701.9l13.8,19.6h-8.9l-12.6-18.4h-6.2v18.4h-7.3v-45.8h17.3c3.2,0,5.9,0.5,8.3,1.6c2.3,1.1,4.1,2.7,5.4,4.7
		c1.3,2,1.9,4.4,1.9,7.2c0,2.3-0.5,4.3-1.5,6c-1,1.7-2.3,3.2-4.1,4.3S1222.7,701.5,1220.4,701.9z M1215.2,696.9c3,0,5.3-0.6,6.9-1.9
		c1.6-1.3,2.5-3.1,2.5-5.4c0-2.4-0.7-4.3-2.2-5.6s-3.7-2-6.6-2h-9.3v15H1215.2z M1264.3,700.7h19.2v-6.1h-19.2v-12.4h22.3v-6.5H1257
		v45.8h29.8v-6.5h-22.5V700.7z M1327.4,711.7l-13.4-36h-8.2l17.6,45.8h7.8l17.1-45.8h-8.1L1327.4,711.7z M1376.3,700.7h19.2v-6.1
		h-19.2v-12.4h22.3v-6.5H1369v45.8h29.8v-6.5h-22.5V700.7z M1443.9,675.7l18.2,45.8h-8.3l-4.2-10.9h-19.4l-4.1,10.9h-8l17.8-45.8
		H1443.9z M1447.6,704.2l-7.9-19.9l-7.6,19.9H1447.6z M1490.4,675.7h-7.3v45.8h27.3v-6.7h-19.9V675.7z M1540.4,700.7h19.2v-6.1
		h-19.2v-12.4h22.3v-6.5H1533v45.8h29.8v-6.5h-22.5V700.7z M1625,698.6c0,3.4-0.6,6.4-1.7,9.2c-1.1,2.8-2.7,5.2-4.8,7.2
		c-2.1,2-4.5,3.6-7.4,4.7c-2.8,1.1-6,1.7-9.4,1.7h-14.3v-45.8h14.3c4.6,0,8.6,1,12.1,2.9c3.5,1.9,6.2,4.6,8.2,8.1
		C1624,690.2,1625,694.1,1625,698.6z M1617.3,698.6c0-3.3-0.7-6.2-2-8.6c-1.4-2.4-3.3-4.3-5.7-5.5c-2.5-1.3-5.4-1.9-8.7-1.9h-6.1
		v32.1h6.1c2.5,0,4.7-0.4,6.7-1.1c2-0.7,3.7-1.8,5.2-3.2c1.4-1.4,2.6-3.1,3.3-5C1616.9,703.3,1617.3,701.1,1617.3,698.6z"/>
</g>
</svg>
